# xmcd CD database file
#
# Track frame offsets:
#	150
#	28520
#	62507
#	96710
#	127732
#	163232
#
# Disc length: 2594 seconds
#
# Revision: 0
# Processed by: cddbd v1.4PL0 Copyright (c) Steve Scherf et al.
# Submitted via: CDex 1.50beta9
#
DISCID=4a0a2006
DTITLE=Wang Sheng-di - Dancing Crystal
DYEAR=1997
DGENRE=New Age
TTITLE0=The Dreamland
TTITLE1=Dancing Crystal
TTITLE2=The Sacred Cottage
TTITLE3=Sunflowers
TTITLE4=The Goddess-Muse
TTITLE5=Illusion
EXTD=YEAR: 1997
EXTT0=
EXTT1=
EXTT2=
EXTT3=
EXTT4=
EXTT5=
PLAYORDER=
